<?xml version="1.0" encoding="UTF-8" standalone="no"?>
<svg
   xmlns:dc="http://purl.org/dc/elements/1.1/"
   xmlns:cc="http://creativecommons.org/ns#"
   xmlns:rdf="http://www.w3.org/1999/02/22-rdf-syntax-ns#"
   xmlns:svg="http://www.w3.org/2000/svg"
   xmlns="http://www.w3.org/2000/svg"
   xmlns:sodipodi="http://sodipodi.sourceforge.net/DTD/sodipodi-0.dtd"
   xmlns:inkscape="http://www.inkscape.org/namespaces/inkscape"
   viewBox="0 0 28 28"
   height="28"
   width="28"
   xml:space="preserve"
   version="1.1"
   id="svg2"
   inkscape:version="0.91 r13725"
   sodipodi:docname="aws.svg"><sodipodi:namedview
     pagecolor="#ffffff"
     bordercolor="#666666"
     borderopacity="1"
     objecttolerance="10"
     gridtolerance="10"
     guidetolerance="10"
     inkscape:pageopacity="0"
     inkscape:pageshadow="2"
     inkscape:window-width="1536"
     inkscape:window-height="801"
     id="namedview40"
     showgrid="false"
     inkscape:zoom="8"
     inkscape:cx="51.109912"
     inkscape:cy="25.81305"
     inkscape:window-x="1912"
     inkscape:window-y="-8"
     inkscape:window-maximized="1"
     inkscape:current-layer="g10" /><metadata
     id="metadata8"><rdf:RDF><cc:Work
         rdf:about=""><dc:format>image/svg+xml</dc:format><dc:type
           rdf:resource="http://purl.org/dc/dcmitype/StillImage" /><dc:title></dc:title></cc:Work></rdf:RDF></metadata><defs
     id="defs6" /><g
     transform="matrix(1.25,0,0,-1.25,0,28)"
     id="g10"><g
       id="g4217"
       transform="scale(0.12873563,0.12873563)"><path
         id="path14"
         style="fill:#f68d11;fill-opacity:1;fill-rule:nonzero;stroke:none"
         d="m 128.967,114 -26.967,9 0,39 27,-8 -0.033,-40"
         inkscape:connector-curvature="0" /><path
         id="path16"
         style="fill:#f68d11;fill-opacity:1;fill-rule:nonzero;stroke:none"
         d="m 136,154 27,8 -0.094,-38.973 L 136,114 l 0,40"
         inkscape:connector-curvature="0" /><path
         id="path18"
         style="fill:#f68d11;fill-opacity:1;fill-rule:nonzero;stroke:none"
         d="M 157.5,166.223 132.336,174 107.5,166.223 l 24.872,-6.667 25.128,6.667"
         inkscape:connector-curvature="0" /><path
         id="path26"
         style="fill:#f68d11;fill-opacity:1;fill-rule:nonzero;stroke:none"
         d="M 27,97 0,105 0,66 26.9672,57 27,97"
         inkscape:connector-curvature="0" /><path
         id="path28"
         style="fill:#f68d11;fill-opacity:1;fill-rule:nonzero;stroke:none"
         d="M 34,97 61,105 60.9063,66.0262 34,57 34,97"
         inkscape:connector-curvature="0" /><path
         id="path30"
         style="fill:#f68d11;fill-opacity:1;fill-rule:nonzero;stroke:none"
         d="M 55.5,109.223 30.3359,117 5.5,109.223 30.3723,102.556 55.5,109.223"
         inkscape:connector-curvature="0" /><path
         id="path32"
         style="fill:#f68d11;fill-opacity:1;fill-rule:nonzero;stroke:none"
         d="M 94.9672,57 68,66 68,105 95,97 94.9672,57"
         inkscape:connector-curvature="0" /><path
         id="path34"
         style="fill:#f68d11;fill-opacity:1;fill-rule:nonzero;stroke:none"
         d="m 102,97 27,8 L 128.906,66.0262 102,57 l 0,40"
         inkscape:connector-curvature="0" /><path
         id="path36"
         style="fill:#f68d11;fill-opacity:1;fill-rule:nonzero;stroke:none"
         d="M 123.5,109.223 98.3359,117 73.5,109.223 98.3723,102.556 123.5,109.223"
         inkscape:connector-curvature="0" /><path
         id="path38"
         style="fill:#f68d11;fill-opacity:1;fill-rule:nonzero;stroke:none"
         d="M 60.9672,0 34,9 34,48 61,40 60.9672,0"
         inkscape:connector-curvature="0" /><path
         id="path40"
         style="fill:#f68d11;fill-opacity:1;fill-rule:nonzero;stroke:none"
         d="M 68,40 95,48 94.9063,9.02617 68,0 68,40"
         inkscape:connector-curvature="0" /><path
         id="path42"
         style="fill:#f68d11;fill-opacity:1;fill-rule:nonzero;stroke:none"
         d="M 89.5,52.223 64.3359,60 39.5,52.223 64.3723,45.5559 89.5,52.223"
         inkscape:connector-curvature="0" /></g></g></svg>