<?xml version="1.0" encoding="UTF-8" standalone="no"?>
<!-- Generator: Adobe Illustrator 16.0.4, SVG Export Plug-In . SVG Version: 6.00 Build 0)  -->

<svg
   xmlns:sketch="http://www.bohemiancoding.com/sketch/ns"
   xmlns:dc="http://purl.org/dc/elements/1.1/"
   xmlns:cc="http://creativecommons.org/ns#"
   xmlns:rdf="http://www.w3.org/1999/02/22-rdf-syntax-ns#"
   xmlns:svg="http://www.w3.org/2000/svg"
   xmlns="http://www.w3.org/2000/svg"
   xmlns:sodipodi="http://sodipodi.sourceforge.net/DTD/sodipodi-0.dtd"
   xmlns:inkscape="http://www.inkscape.org/namespaces/inkscape"
   version="1.1"
   id="Layer_1"
   x="0px"
   y="0px"
   width="28"
   height="28"
   viewBox="90.64 28.138 28 28"
   enable-background="new 90.64 28.138 100 30"
   xml:space="preserve"
   inkscape:version="0.91 r13725"
   sodipodi:docname="maas.svg"><metadata
     id="metadata22"><rdf:RDF><cc:Work
         rdf:about=""><dc:format>image/svg+xml</dc:format><dc:type
           rdf:resource="http://purl.org/dc/dcmitype/StillImage" /><dc:title>Untitled 2 copy</dc:title></cc:Work></rdf:RDF></metadata><defs
     id="defs20" /><sodipodi:namedview
     pagecolor="#ffffff"
     bordercolor="#666666"
     borderopacity="1"
     objecttolerance="10"
     gridtolerance="10"
     guidetolerance="10"
     inkscape:pageopacity="0"
     inkscape:pageshadow="2"
     inkscape:window-width="1920"
     inkscape:window-height="1017"
     id="namedview18"
     showgrid="false"
     inkscape:zoom="2.88"
     inkscape:cx="50"
     inkscape:cy="15"
     inkscape:window-x="-8"
     inkscape:window-y="-8"
     inkscape:window-maximized="1"
     inkscape:current-layer="Layer_1" /><title
     id="title3">Untitled 2 copy</title><desc
     id="desc5">Created with Sketch.</desc><path
     id="Fill-1"
     sketch:type="MSShapeGroup"
     d="m 118.639,42.512696 c 0,7.52571 -6.26764,13.625304 -14.00045,13.625304 -7.73191,0 -13.99955,-6.100503 -13.99955,-13.625304 0,-7.524801 6.26764,-13.625304 13.99955,-13.625304 7.73281,0 14.00045,6.100503 14.00045,13.625304"
     inkscape:connector-curvature="0"
     style="fill:#dd4813" /><path
     id="Fill-2"
     sketch:type="MSShapeGroup"
     d="m 97.637865,36.26504 c -0.644023,-0.0091 -1.173593,0.492327 -1.182677,1.119091 -0.0091,0.627673 0.505953,1.142709 1.149976,1.151793 l 0.03361,0 13.999546,0 c 0.64493,0.0091 1.1745,-0.492328 1.18358,-1.119092 0.009,-0.626764 -0.50595,-1.142709 -1.14997,-1.151792 -0.0109,0 -0.0218,0 -0.0336,0 l -14.000454,0"
     inkscape:connector-curvature="0"
     style="fill:#ffffff" /><path
     id="Fill-3"
     sketch:type="MSShapeGroup"
     d="m 97.637865,39.671366 c -0.644023,-0.0091 -1.173593,0.492327 -1.182677,1.119091 -0.0091,0.627673 0.505953,1.142709 1.149976,1.151793 0.01181,0 0.02271,0 0.03361,0 l 13.999546,0 c 0.64493,0.0091 1.1745,-0.492328 1.18358,-1.119092 0.009,-0.626764 -0.50595,-1.142709 -1.14997,-1.151792 -0.0109,0 -0.0218,0 -0.0336,0 l -14.000454,0"
     inkscape:connector-curvature="0"
     style="fill:#ffffff" /><path
     id="Fill-4"
     sketch:type="MSShapeGroup"
     d="m 97.637865,43.077692 c -0.644023,-0.0091 -1.173593,0.492327 -1.182677,1.119091 -0.0091,0.626764 0.505953,1.142709 1.149976,1.151793 l 0.03361,0 13.999546,0 c 0.64493,0.0091 1.1745,-0.491419 1.18358,-1.118183 0.009,-0.626764 -0.50595,-1.142709 -1.14997,-1.151793 l -0.0336,0 -14.000454,0"
     inkscape:connector-curvature="0"
     style="fill:#ffffff" /><path
     id="Fill-5"
     sketch:type="MSShapeGroup"
     d="m 97.637865,46.484926 c -0.644023,-0.01 -1.173593,0.491419 -1.182677,1.118183 -0.0091,0.626764 0.505953,1.142709 1.149976,1.151793 l 0.03361,0 13.999546,0 c 0.64493,0.0091 1.1745,-0.492328 1.18358,-1.119092 0.009,-0.626764 -0.50595,-1.142709 -1.14997,-1.150884 -0.0109,-9.08e-4 -0.0218,-9.08e-4 -0.0336,0 l -14.000454,0"
     inkscape:connector-curvature="0"
     style="fill:#ffffff" /></svg>